<?xml version="1.0" encoding="UTF-8" standalone="no"?>
<!-- Created with Inkscape (http://www.inkscape.org/) -->

<svg
   xmlns:dc="http://purl.org/dc/elements/1.1/"
   xmlns:cc="http://creativecommons.org/ns#"
   xmlns:rdf="http://www.w3.org/1999/02/22-rdf-syntax-ns#"
   xmlns:svg="http://www.w3.org/2000/svg"
   xmlns="http://www.w3.org/2000/svg"
   xmlns:sodipodi="http://sodipodi.sourceforge.net/DTD/sodipodi-0.dtd"
   xmlns:inkscape="http://www.inkscape.org/namespaces/inkscape"
   width="64"
   height="64"
   id="svg4830"
   version="1.1"
   inkscape:version="0.91 r13725"
   viewBox="0 0 64 64"
   inkscape:export-filename="C:\Users\da\Desktop\64x64_lcd_mono.png"
   inkscape:export-xdpi="90"
   inkscape:export-ydpi="90"
   sodipodi:docname="lcd_mono_64.svg">
  <defs
     id="defs4832" />
  <sodipodi:namedview
     id="base"
     pagecolor="#ffffff"
     bordercolor="#666666"
     borderopacity="1.0"
     inkscape:pageopacity="0.0"
     inkscape:pageshadow="2"
     inkscape:zoom="11"
     inkscape:cx="0.77620727"
     inkscape:cy="33.580087"
     inkscape:current-layer="layer1"
     showgrid="true"
     inkscape:document-units="px"
     inkscape:grid-bbox="true"
     inkscape:window-width="1920"
     inkscape:window-height="1018"
     inkscape:window-x="-8"
     inkscape:window-y="-8"
     inkscape:window-maximized="1" />
  <metadata
     id="metadata4835">
    <rdf:RDF>
      <cc:Work
         rdf:about="">
        <dc:format>image/svg+xml</dc:format>
        <dc:type
           rdf:resource="http://purl.org/dc/dcmitype/StillImage" />
        <dc:title />
      </cc:Work>
    </rdf:RDF>
  </metadata>
  <g
     id="layer1"
     inkscape:label="Layer 1"
     inkscape:groupmode="layer">
    <g
       id="g4233">
      <g
         id="flowRoot5266"
         style="font-style:normal;font-variant:normal;font-weight:bold;font-stretch:normal;font-size:10px;line-height:125%;font-family:'Berlin Sans FB Demi';-inkscape-font-specification:'Berlin Sans FB Demi Bold';text-align:start;letter-spacing:0px;word-spacing:0px;writing-mode:lr-tb;text-anchor:start;fill:#00c0b5;fill-opacity:1;stroke:none;stroke-width:1px;stroke-linecap:butt;stroke-linejoin:miter;stroke-opacity:1"
         transform="matrix(2.3629975,0,0,2.1142854,5.7755417,-1.1467658)" />
      <rect
         style="opacity:1;fill:#00c0b5;fill-opacity:1;stroke:#00c0b5;stroke-width:1.89705551;stroke-linejoin:miter;stroke-opacity:0"
         id="rect5329"
         width="2.8656099"
         height="11.698234"
         x="17.518934"
         y="3.478343"
         rx="1.0027666" />
      <rect
         style="opacity:1;fill:#00c0b5;fill-opacity:1;stroke:#00c0b5;stroke-width:1.89705551;stroke-linejoin:miter;stroke-opacity:0"
         id="rect5329-8"
         width="2.8656099"
         height="11.698234"
         x="24.083168"
         y="3.478343"
         rx="1.0027666" />
      <rect
         style="opacity:1;fill:#00c0b5;fill-opacity:1;stroke:#00c0b5;stroke-width:1.89705551;stroke-linejoin:miter;stroke-opacity:0"
         id="rect5329-4"
         width="2.8656099"
         height="11.698234"
         x="30.647408"
         y="3.478343"
         rx="1.0027666" />
      <rect
         style="opacity:1;fill:#00c0b5;fill-opacity:1;stroke:#00c0b5;stroke-width:1.89705551;stroke-linejoin:miter;stroke-opacity:0"
         id="rect5329-9"
         width="2.8656099"
         height="11.698234"
         x="43.775852"
         y="3.478343"
         rx="1.0027666" />
      <rect
         style="opacity:1;fill:#00c0b5;fill-opacity:1;stroke:#00c0b5;stroke-width:1.89705551;stroke-linejoin:miter;stroke-opacity:0"
         id="rect5329-92"
         width="2.8656099"
         height="11.698234"
         x="37.21162"
         y="3.478343"
         rx="1.0027666" />
      <rect
         style="opacity:1;fill:#00c0b5;fill-opacity:1;stroke:#00c0b5;stroke-width:1.89705551;stroke-linejoin:miter;stroke-opacity:0"
         id="rect5329-6"
         width="2.8656099"
         height="11.698234"
         x="17.214855"
         y="49.229652"
         rx="1.0027666" />
      <rect
         style="opacity:1;fill:#00c0b5;fill-opacity:1;stroke:#00c0b5;stroke-width:1.89705551;stroke-linejoin:miter;stroke-opacity:0"
         id="rect5329-8-1"
         width="2.8656099"
         height="11.698234"
         x="23.779089"
         y="49.229652"
         rx="1.0027666" />
      <rect
         style="opacity:1;fill:#00c0b5;fill-opacity:1;stroke:#00c0b5;stroke-width:1.89705551;stroke-linejoin:miter;stroke-opacity:0"
         id="rect5329-4-1"
         width="2.8656099"
         height="11.698234"
         x="30.343328"
         y="49.229652"
         rx="1.0027666" />
      <rect
         style="opacity:1;fill:#00c0b5;fill-opacity:1;stroke:#00c0b5;stroke-width:1.89705551;stroke-linejoin:miter;stroke-opacity:0"
         id="rect5329-9-0"
         width="2.8656099"
         height="11.698234"
         x="43.471775"
         y="49.229652"
         rx="1.0027666" />
      <rect
         style="opacity:1;fill:#00c0b5;fill-opacity:1;stroke:#00c0b5;stroke-width:1.89705551;stroke-linejoin:miter;stroke-opacity:0"
         id="rect5329-92-0"
         width="2.8656099"
         height="11.698234"
         x="36.907543"
         y="49.229652"
         rx="1.0027666" />
      <path
         style="opacity:1;fill:#00c0b5;fill-opacity:0;stroke:#008080;stroke-width:0.16941321;stroke-linejoin:miter;stroke-opacity:0"
         d="M 16.34926,60.593053 C 16.191403,60.45181 16.134339,59.090266 16.134339,55.465059 l 0,-4.935693 -7.3329694,0 -7.3329698,0 L 1.1895932,50.17321 C 0.94135149,49.856099 0.9107865,47.883625 0.9107865,32.180766 c 0,-15.702858 0.0305649,-17.675332 0.2788067,-17.992443 l 0.2788066,-0.356156 7.5120704,0 7.5120708,0 0,-4.9356934 c 0,-3.6252061 0.05706,-4.9867512 0.21492,-5.127993 0.118206,-0.1057648 0.589287,-0.1922997 1.046846,-0.1922997 1.45593,0 1.424743,-0.1186665 1.424743,5.4210483 l 0,4.8349378 1.880556,0 1.880557,0 0,-4.7718371 c 0,-5.5422664 -0.01504,-5.484149 1.421031,-5.484149 0.501397,0 0.946587,0.089666 1.061779,0.213853 0.133067,0.143468 0.213974,1.8180485 0.245804,5.0879305 l 0.04745,4.8740776 1.925332,0.04548 1.925332,0.04548 0,-4.8815938 c 0,-5.5212729 -0.03393,-5.3852355 1.343254,-5.3852355 1.377066,0 1.343254,-0.1354161 1.343254,5.3798141 l 0,4.8761722 1.970108,0 1.970107,0 0,-4.9356936 c 0,-3.6252061 0.05706,-4.9867512 0.214921,-5.127993 0.118207,-0.1057647 0.597208,-0.1922997 1.064449,-0.1922997 1.419958,0 1.407139,-0.049957 1.407139,5.484149 l 0,4.7718373 1.880556,0 1.880557,0 0,-4.7718373 c 0,-5.5341059 -0.01284,-5.484149 1.40714,-5.484149 0.467241,0 0.946243,0.086535 1.064449,0.1922997 0.157855,0.1412419 0.214921,1.5027869 0.214921,5.127993 l 0,4.9356936 8.202807,0 c 6.141162,0 8.256827,0.04833 8.417731,0.192299 0.164614,0.147283 0.214921,4.403836 0.214921,18.182712 0,17.622584 -0.007,17.993804 -0.346428,18.1563 -0.224261,0.10738 -3.2243,0.165879 -8.50728,0.165879 l -8.160851,0 0,4.876172 c 0,4.219218 -0.03792,4.910099 -0.281445,5.127993 -0.337708,0.302163 -1.872346,0.34387 -2.190145,0.05952 -0.157855,-0.141241 -0.214921,-1.502787 -0.214921,-5.127994 l 0,-4.935693 -1.970105,0 -1.970108,0 0,4.935693 c 0,3.625207 -0.05706,4.986751 -0.214921,5.127994 -0.118206,0.105764 -0.625957,0.1923 -1.128333,0.1923 -0.502378,0 -1.010129,-0.08653 -1.128335,-0.1923 -0.157855,-0.141241 -0.214921,-1.502787 -0.214921,-5.127994 l 0,-4.935693 -1.970105,0 -1.970108,0 0,4.935693 c 0,3.625207 -0.05706,4.986751 -0.214921,5.127994 -0.118206,0.105764 -0.63924,0.1923 -1.157852,0.1923 -0.748949,0 -0.981075,-0.06377 -1.128336,-0.309965 -0.116,-0.193951 -0.185391,-2.113258 -0.185391,-5.127994 l 0,-4.818028 -1.880557,0 -1.880556,0 0,4.818028 c 0,3.014736 -0.06939,4.934043 -0.185391,5.127994 -0.147267,0.246197 -0.379387,0.309965 -1.128334,0.309965 -0.518612,0 -1.039646,-0.08653 -1.157852,-0.1923 -0.157856,-0.141241 -0.214921,-1.502787 -0.214921,-5.127994 l 0,-4.935693 -1.970108,0 -1.970106,0 0,4.935693 c 0,3.625207 -0.05706,4.986751 -0.214921,5.127994 -0.278864,0.249512 -1.977804,0.249512 -2.256668,0 z m 43.80398,-12.396394 0.398053,-0.249462 0,-15.722837 c 0,-14.405382 -0.02483,-15.747391 -0.29641,-16.015891 -0.284774,-0.281554 -1.408079,-0.293055 -28.621866,-0.293055 -24.1790712,0 -28.3763511,0.03329 -28.6731169,0.227432 -0.3394632,0.222072 -0.3487745,0.596132 -0.3950425,15.869678 l -0.047385,15.642244 0.4422203,0.395676 0.4422203,0.395675 28.1766368,0 c 25.212189,0 28.218518,-0.02625 28.57469,-0.24946 z"
         id="path5432"
         inkscape:connector-curvature="0" />
      <path
         style="opacity:1;fill:#00c0b5;fill-opacity:0;stroke:#008080;stroke-width:0.16941321;stroke-linejoin:miter;stroke-opacity:0"
         d="m 16.319742,60.475387 c -0.11601,-0.19395 -0.185403,-2.113257 -0.185403,-5.127993 l 0,-4.818028 -7.3329694,0 -7.3329698,0 L 1.1895932,50.17321 C 0.94135149,49.856099 0.9107865,47.883625 0.9107865,32.180766 c 0,-15.702858 0.0305649,-17.675332 0.2788067,-17.992443 l 0.2788066,-0.356156 7.5120704,0 7.5120708,0 0,-4.9356934 c 0,-3.6252061 0.05706,-4.9867512 0.21492,-5.127993 0.118206,-0.1057648 0.589287,-0.1922997 1.046846,-0.1922997 1.45593,0 1.424743,-0.1186665 1.424743,5.4210483 l 0,4.8349378 1.880556,0 1.880557,0 0,-4.7718371 c 0,-5.5422664 -0.01504,-5.484149 1.421031,-5.484149 0.501397,0 0.946587,0.089666 1.061779,0.213853 0.133067,0.143468 0.213974,1.8180485 0.245804,5.0879305 l 0.04745,4.8740776 1.925332,0.04548 1.925332,0.04548 0,-4.8815938 c 0,-5.5212729 -0.03393,-5.3852355 1.343254,-5.3852355 1.377066,0 1.343254,-0.1354161 1.343254,5.3798141 l 0,4.8761722 1.970108,0 1.970107,0 0,-4.9356936 c 0,-3.6252061 0.05706,-4.9867512 0.214921,-5.127993 0.118207,-0.1057647 0.597208,-0.1922997 1.064449,-0.1922997 1.419958,0 1.407139,-0.049957 1.407139,5.484149 l 0,4.7718373 1.880556,0 1.880557,0 0,-4.7718373 c 0,-5.5341059 -0.01284,-5.484149 1.40714,-5.484149 0.467241,0 0.946243,0.086535 1.064449,0.1922997 0.157855,0.1412419 0.214921,1.5027869 0.214921,5.127993 l 0,4.9356936 8.202807,0 c 6.141162,0 8.256827,0.04833 8.417731,0.192299 0.164614,0.147283 0.214921,4.403836 0.214921,18.182712 0,17.622584 -0.007,17.993804 -0.346428,18.1563 -0.224261,0.10738 -3.2243,0.165879 -8.50728,0.165879 l -8.160851,0 0,4.862781 c 0,4.507469 -0.02393,4.88216 -0.32753,5.127994 -0.386113,0.31265 -1.821562,0.361466 -2.14406,0.07291 -0.157855,-0.14124 -0.214921,-1.502787 -0.214921,-5.127993 l 0,-4.935694 -1.970105,0 -1.970108,0 0,4.818028 c 0,3.014737 -0.06939,4.934043 -0.185411,5.127994 -0.147267,0.246198 -0.379387,0.309965 -1.128333,0.309965 -0.518613,0 -1.039649,-0.08653 -1.157855,-0.1923 -0.157855,-0.14124 -0.214921,-1.502787 -0.214921,-5.127993 l 0,-4.935694 -1.970105,0 -1.970108,0 0,4.935694 c 0,3.625206 -0.05706,4.986751 -0.214921,5.127993 -0.317797,0.284348 -1.852437,0.242642 -2.190145,-0.05952 -0.243525,-0.217895 -0.281444,-0.908776 -0.281444,-5.127994 l 0,-4.876172 -1.880557,0 -1.880556,0 0,4.876172 c 0,4.219218 -0.03792,4.910099 -0.281443,5.127994 -0.337707,0.302163 -1.872347,0.343869 -2.190144,0.05952 -0.157856,-0.14124 -0.214921,-1.502787 -0.214921,-5.127993 l 0,-4.935694 -1.970108,0 -1.970106,0 0,4.935694 c 0,3.625206 -0.05706,4.986751 -0.214921,5.127993 -0.118206,0.105765 -0.63924,0.1923 -1.157853,0.1923 -0.748947,0 -0.981073,-0.06377 -1.128333,-0.309965 z m 43.833498,-12.278728 0.398053,-0.249462 0,-15.722837 c 0,-14.405382 -0.02483,-15.747391 -0.29641,-16.015891 -0.284774,-0.281554 -1.408079,-0.293055 -28.621866,-0.293055 -24.1790712,0 -28.3763511,0.03329 -28.6731169,0.227432 -0.3394546,0.222066 -0.3487755,0.595826 -0.3950275,15.840167 l -0.047369,15.612733 0.3737949,0.425186 0.3737951,0.425187 28.2450484,0 c 25.274105,0 28.286916,-0.02623 28.6431,-0.24946 z"
         id="path5434"
         inkscape:connector-curvature="0" />
      <path
         style="opacity:1;fill:#00c0b5;fill-opacity:0;stroke:#008080;stroke-width:0.02117666;stroke-linejoin:miter;stroke-opacity:0"
         d="m 8.5975176,14.858332 0,-1.111733 3.8842444,0 3.884245,0 2.67e-4,-4.742392 c 2.23e-4,-3.8957382 0.0056,-4.7602727 0.03021,-4.8425481 0.09876,-0.3302945 0.389591,-0.5831351 0.750405,-0.6523713 0.06996,-0.013425 0.339565,-0.01915 0.712455,-0.015128 l 0.5999,0.00647 0.173433,0.074099 c 0.281197,0.1201424 0.465847,0.3186072 0.546074,0.5869309 0.0246,0.082275 0.02999,0.9468098 0.03021,4.8425481 l 2.66e-4,4.7423924 1.858169,0 1.858169,0 0,-4.7146194 c 0,-3.0746806 0.0078,-4.7521502 0.0225,-4.8225168 0.05559,-0.2664896 0.265911,-0.5057535 0.558212,-0.6350103 l 0.16694,-0.073824 0.672789,0 c 0.645549,0 0.677774,0.00182 0.79592,0.044928 0.248409,0.090638 0.464144,0.2836667 0.565446,0.5059311 l 0.05022,0.1101717 0.0058,4.79247 0.0058,4.7924697 1.85767,0 1.857669,0 0.0058,-4.7724385 0.0058,-4.7724387 0.05367,-0.1201873 c 0.129397,-0.2897886 0.350126,-0.4731768 0.672393,-0.5586646 0.09801,-0.026 0.23333,-0.032256 0.697617,-0.032256 0.502452,0 0.593423,0.00485 0.712297,0.03795 0.27302,0.07603 0.490305,0.2456302 0.614012,0.4792636 l 0.07086,0.1338007 0.01123,4.7974778 0.01123,4.797478 1.858169,0 1.858168,0 0.01123,-4.797478 0.01123,-4.7974778 0.06963,-0.130203 c 0.127432,-0.2382977 0.34216,-0.4068196 0.615224,-0.4828614 0.118928,-0.033119 0.209883,-0.03795 0.714367,-0.03795 0.503343,0 0.595609,0.00488 0.713605,0.037739 0.189843,0.052869 0.314447,0.123285 0.445968,0.2520426 0.137459,0.1345809 0.218513,0.2817088 0.249595,0.4530991 0.01564,0.086361 0.02336,1.6666902 0.02346,4.8207916 l 1.69e-4,4.6923139 1.857988,0 1.857986,0 0.0058,-4.79247 0.0058,-4.79247 0.05022,-0.1101718 c 0.101299,-0.2222644 0.317037,-0.4152926 0.565446,-0.505931 0.118126,-0.043103 0.150415,-0.044928 0.794759,-0.044928 l 0.671627,0 0.167903,0.072215 c 0.291121,0.1252081 0.503235,0.366527 0.559572,0.6366198 0.01464,0.070367 0.0225,1.7478361 0.0225,4.8225167 l 0,4.7146193 7.074475,0 7.074474,0 0,1.111733 0,1.111732 -25.510646,0 -25.5106449,0 0,-1.111732 z"
         id="path5436"
         inkscape:connector-curvature="0" />
      <path
         style="opacity:1;fill:#00c0b5;fill-opacity:0;stroke:#008080;stroke-width:0.0847066;stroke-linejoin:miter;stroke-opacity:0"
         d="M 16.569869,60.758684 C 16.111622,60.53143 16.118833,60.616436 16.115434,55.401976 l -0.0032,-4.867588 -7.2784244,0 c -6.5840357,0 -7.2983151,-0.01238 -7.4869104,-0.130653 -0.48418998,-0.303444 -0.45821756,0.731748 -0.45821756,-18.263351 0,-15.85978 0.0139505,-17.624215 0.14124526,-17.864234 0.2871167,-0.541384 -0.0584165,-0.519086 8.0437493,-0.519086 l 7.3072038,0 0,-4.7714099 c 0,-5.2543328 -0.01494,-5.1088717 0.551587,-5.3709977 0.208591,-0.096514 0.461276,-0.1221391 0.991811,-0.1005821 0.672472,0.027324 0.726334,0.043371 0.972286,0.2896665 l 0.260376,0.2607397 0,4.8462917 0,4.8462918 1.877877,0 1.877879,0 0.02507,-4.8275247 c 0.02752,-5.3010009 0.002,-5.0649597 0.575073,-5.3082973 0.365156,-0.1550403 1.310891,-0.1550403 1.676048,0 0.57312,0.2433376 0.547547,0.0073 0.575071,5.3082973 l 0.02507,4.8275247 1.877877,0 1.877879,0 0,-4.8462918 0,-4.8462917 0.260377,-0.2607397 c 0.245952,-0.2462957 0.299813,-0.2623422 0.972284,-0.2896665 0.530536,-0.021557 0.783221,0.00407 0.991813,0.1005821 0.566525,0.262126 0.551586,0.116665 0.551586,5.3709977 l 0,4.7714099 1.880556,0 1.880556,0 0,-4.7714099 c 0,-5.2543328 -0.01484,-5.1088717 0.551586,-5.3709977 0.208592,-0.096514 0.461277,-0.1221391 0.991813,-0.1005821 0.672471,0.027324 0.726334,0.043371 0.972284,0.2896665 l 0.260377,0.2607397 0,4.8462917 0,4.8462918 1.880556,0 1.880557,0 0,-4.7352906 c 0,-5.2787493 -0.01524,-5.1415299 0.599638,-5.4025934 0.233921,-0.09932 0.489473,-0.1268695 0.973843,-0.1049844 0.580112,0.026211 0.688449,0.056889 0.928951,0.263053 l 0.272253,0.2333816 0.02308,4.8531857 0.02306,4.8531851 8.12084,0.04006 8.120837,0.04006 0.274504,0.235334 0.274503,0.235334 0,17.899086 0,17.899085 -0.261762,0.234211 -0.261762,0.234211 -8.290293,0 -8.290291,0 0,4.895631 0,4.895631 -0.304472,0.272424 c -0.299599,0.268065 -0.316939,0.272425 -1.083558,0.272425 -0.766621,0 -0.783961,-0.0043 -1.08356,-0.272425 l -0.30447,-0.272424 0,-4.895631 0,-4.895631 -1.880556,0 -1.880557,0 0,4.811474 c 0,4.111976 -0.01945,4.845131 -0.133809,5.043003 -0.230981,0.399653 -0.453864,0.481634 -1.309444,0.481634 -0.733356,0 -0.792032,-0.01292 -1.054678,-0.232459 l -0.278124,-0.23246 0,-4.937188 0,-4.937191 -1.902944,0.02162 -1.902944,0.02162 -0.04476,4.954682 -0.04478,4.954681 -0.251258,0.193342 c -0.224056,0.17241 -0.335814,0.193343 -1.03229,0.193343 -0.577138,0 -0.835461,-0.03411 -0.98952,-0.130654 -0.45615,-0.285871 -0.458218,-0.310394 -0.458218,-5.435447 l 0,-4.770005 -1.880556,0 -1.880557,0 0,4.851534 c 0,5.264526 0.0072,5.186179 -0.490024,5.388852 -0.129136,0.05265 -0.554654,0.09573 -0.945581,0.09573 -0.658763,0 -0.732178,-0.01705 -1.003228,-0.23377 l -0.292451,-0.233769 -0.02439,-4.934285 -0.02439,-4.934287 -1.876552,0 -1.87655,0 -0.02439,4.934287 -0.02439,4.934285 -0.292451,0.233769 c -0.273794,0.218829 -0.339559,0.233578 -1.029847,0.230919 -0.438825,-0.0017 -0.824031,-0.04581 -0.951396,-0.108975 z m 43.698042,-12.6894 0.261303,-0.26167 0,-15.587006 c 0,-13.992139 -0.01444,-15.61184 -0.140267,-15.829714 -0.292816,-0.506646 1.921303,-0.470458 -28.784477,-0.470458 -30.5788715,0 -28.4515706,-0.03327 -28.8058469,0.45049 -0.1568547,0.214182 -0.1647766,0.860023 -0.1900082,15.490827 -0.01448,8.39703 -7.88e-4,15.427408 0.030422,15.62306 0.040574,0.254321 0.1413801,0.431453 0.3536064,0.621341 l 0.2968539,0.265608 28.3585588,-0.0204 28.358558,-0.0204 0.261303,-0.26167 z"
         id="path5565"
         inkscape:connector-curvature="0" />
      <path
         style="opacity:1;fill:#00c0b5;fill-opacity:0;stroke:#008080;stroke-width:0.0847066;stroke-linejoin:miter;stroke-opacity:0"
         d="m 3.1379313,48.160233 c -0.4825387,-0.30241 -0.4582174,0.547893 -0.4582174,-16.019855 0,-17.023042 -0.046282,-15.747468 0.5810282,-16.013814 0.2705944,-0.114891 2.9348505,-0.124845 28.4642019,-0.106348 l 28.165662,0.02041 0.274529,0.235335 0.27453,0.235334 0,15.655588 0,15.655589 -0.261762,0.23421 -0.261763,0.234212 -28.284862,0 c -26.0046764,0 -28.3016681,-0.01059 -28.4933467,-0.130653 z m 4.0856628,-3.575118 c 0.048562,-0.05509 0.3658029,-0.710943 0.7049799,-1.457461 l 0.6166852,-1.357304 0.024465,1.420005 0.024465,1.420006 1.0012549,-0.02265 1.0012549,-0.02265 0.0041,-3.104839 0.0041,-3.104842 -0.9496781,1e-6 -0.949678,2e-6 -0.3649928,0.701092 C 6.9725575,41.684225 6.9775599,41.675937 6.8576212,41.513547 6.7952772,41.429136 6.4267755,40.729091 6.0387272,39.957888 5.6506788,39.186686 5.2953879,38.510632 5.2491919,38.455546 5.1913282,38.38655 4.872589,38.355398 4.2246311,38.355398 l -0.9405678,0 0.030536,1.902967 c 0.016786,1.04663 0.019855,2.407752 0.0068,3.024713 -0.013056,0.616963 -0.021734,1.168039 -0.019273,1.224616 0.00341,0.07858 0.2317161,0.09749 0.9671233,0.08012 l 0.962666,-0.02274 -0.031357,-1.402185 c -0.017248,-0.771202 -0.00955,-1.383273 0.017127,-1.360157 0.026662,0.02311 0.3152002,0.600014 0.641195,1.281998 0.3259951,0.681983 0.6516748,1.321096 0.7237332,1.420252 0.1432252,0.19708 0.4987226,0.241518 0.6410026,0.08012 z M 14.930292,44.41292 c 0.826769,-0.37486 1.271519,-1.09244 1.271519,-2.05153 0,-0.895636 -0.455206,-1.597399 -1.285153,-1.98124 -0.38269,-0.176986 -0.582873,-0.21398 -1.177481,-0.217584 -0.607765,-0.0038 -0.793129,0.02938 -1.222375,0.217981 -0.777626,0.341685 -1.194124,0.921673 -1.297527,1.806855 -0.09225,0.789662 0.25936,1.574929 0.910317,2.033076 0.712013,0.501122 1.934613,0.585128 2.8007,0.192442 z m 10.859888,0.05539 c 0.911407,-0.360725 1.378865,-1.061336 1.378865,-2.066593 0,-0.743455 -0.188821,-1.200638 -0.675837,-1.636398 -0.491905,-0.440131 -0.99822,-0.606517 -1.828892,-0.601017 -1.08943,0.0072 -1.750135,0.34662 -2.196354,1.12827 -0.187216,0.327967 -0.221505,0.499889 -0.221505,1.110832 0,0.614007 0.03375,0.781576 0.224277,1.113204 0.575375,1.00154 2.09368,1.436848 3.319446,0.951702 z m 5.352783,0.02302 c 0.315245,-0.145852 0.323921,-0.183182 0.182142,-0.783636 -0.160944,-0.681647 -0.188941,-0.707568 -0.62042,-0.574556 -0.280207,0.08638 -0.44877,0.09322 -0.715195,0.02903 -0.438357,-0.105621 -0.623789,-0.338804 -0.623789,-0.784442 0,-0.282244 0.05226,-0.395669 0.273643,-0.593739 0.250714,-0.224323 0.308874,-0.240622 0.694015,-0.19448 0.231204,0.02771 0.497581,0.05952 0.591949,0.07072 0.138061,0.01633 0.203413,-0.07352 0.334597,-0.460388 0.08967,-0.264411 0.163572,-0.54561 0.164233,-0.624885 0.003,-0.366774 -1.40565,-0.589213 -2.271928,-0.358735 -0.571069,0.151936 -1.345819,0.872949 -1.524564,1.418818 -0.429018,1.31018 0.269489,2.573554 1.64792,2.980554 0.348418,0.102875 1.549165,0.02297 1.867387,-0.124266 z m 13.351547,0.06772 c 0.609351,-0.161913 1.278301,-0.707118 1.500925,-1.223279 0.226912,-0.526101 0.210396,-1.459383 -0.03426,-1.935614 -0.236901,-0.46115 -0.681498,-0.861232 -1.192821,-1.073391 -0.585846,-0.243083 -1.678733,-0.233046 -2.260906,0.02076 -0.834674,0.363894 -1.321674,1.134165 -1.320605,2.088763 7.16e-4,0.602666 0.129738,0.97724 0.477405,1.385618 0.627949,0.737589 1.739261,1.027028 2.830257,0.737139 z m 14.477325,0.0079 c 0.245194,-0.06516 0.557302,-0.222965 0.694665,-0.35125 l 0.249428,-0.232946 -0.227063,-0.389906 c -0.374314,-0.642763 -0.333909,-0.623758 -0.824675,-0.387855 -0.557009,0.267748 -1.355293,0.2557 -1.669227,-0.02519 -0.106173,-0.095 -0.175124,-0.187789 -0.153243,-0.20621 0.0219,-0.01843 0.543519,-0.07504 1.159178,-0.125827 1.681447,-0.138693 1.684999,-0.139572 1.77966,-0.446338 0.09199,-0.298091 -0.0048,-0.883843 -0.201895,-1.22054 -0.189382,-0.323682 -0.665271,-0.730745 -1.080499,-0.924224 -0.444765,-0.207238 -1.445003,-0.226572 -1.942568,-0.03754 -1.073927,0.407986 -1.689411,1.583618 -1.425216,2.722291 0.180017,0.775877 0.751275,1.360473 1.591525,1.628688 0.453018,0.144615 1.499894,0.143 2.049922,-0.0032 z M 18.596599,43.363211 c 0.01193,-0.661031 0.04172,-1.278706 0.06619,-1.372613 0.06362,-0.244161 0.592389,-0.453749 0.889647,-0.352626 0.127261,0.04328 0.238092,0.08861 0.246291,0.100722 0.0082,0.01202 0.03842,0.652997 0.06716,1.424199 l 0.05226,1.402185 0.850727,0 0.850729,0 0,-1.856569 0,-1.856569 -0.223877,-0.216973 c -0.529794,-0.513459 -1.288872,-0.572454 -2.183281,-0.169683 -0.326115,0.146857 -0.613051,0.249017 -0.637634,0.227021 -0.02458,-0.022 -0.0447,-0.122005 -0.0447,-0.222223 0,-0.10022 -0.03728,-0.202847 -0.08286,-0.228049 -0.07551,-0.04176 -1.712846,0.176394 -1.783001,0.237567 -0.01655,0.01436 0.01358,0.344627 0.06691,0.733788 0.05334,0.389163 0.0971,1.287472 0.09724,1.996243 1.79e-4,0.708772 0.02852,1.313969 0.06307,1.344885 0.03455,0.03092 0.427454,0.04594 0.873116,0.03339 l 0.810294,-0.02283 0.02171,-1.201872 z m 15.18451,1.14178 c 0.02331,-0.05509 0.02072,-0.64321 -0.0058,-1.306941 l -0.04811,-1.206786 0.249171,-0.175371 c 0.27821,-0.195805 0.776428,-0.233063 0.928221,-0.06941 0.06045,0.06517 0.107757,0.627993 0.122899,1.462279 l 0.02463,1.356324 0.843243,0.02322 c 0.61424,0.01687 0.863145,-0.0048 0.91652,-0.08012 0.04029,-0.05683 0.073,-0.824465 0.07268,-1.705837 -7.18e-4,-1.926027 -0.06831,-2.145143 -0.753154,-2.441779 -0.653778,-0.283178 -1.341052,-0.193298 -2.146274,0.280687 l -0.261032,0.153659 0.06067,-1.259007 0.06067,-1.259006 -0.829471,0.05089 c -1.202459,0.07379 -1.21702,0.0815 -1.134396,0.601433 0.03738,0.235265 0.07092,1.587562 0.07451,3.005106 0.005,1.982458 0.03237,2.586678 0.118467,2.617763 0.06157,0.02223 0.461184,0.04326 0.888042,0.04675 0.544049,0.0045 0.788768,-0.02361 0.818464,-0.09383 z m 5.683954,-1.096266 c 0.01424,-0.660539 0.06556,-1.200139 0.119651,-1.258464 0.05459,-0.05884 0.347516,-0.112081 0.691457,-0.125647 l 0.596749,-0.02354 0,-0.841312 0,-0.841311 -0.247377,-0.02544 c -0.136055,-0.014 -0.473382,0.06713 -0.74961,0.180281 -0.596875,0.244496 -0.569796,0.241394 -0.571515,0.06551 -0.0032,-0.331284 -0.100497,-0.352426 -0.990611,-0.215357 -0.46409,0.07146 -0.857393,0.141779 -0.874009,0.156278 -0.01665,0.01454 0.0203,0.236524 0.08205,0.493413 0.06953,0.289269 0.1087,1.030513 0.102924,1.947166 -0.006,0.962274 0.02483,1.516903 0.08826,1.585313 0.07059,0.07612 0.322957,0.09889 0.912333,0.08235 l 0.814736,-0.02288 0.02495,-1.156358 z m 9.133682,-0.224713 0.02451,-1.381073 0.262093,-0.121269 c 0.144158,-0.0667 0.339758,-0.121268 0.434677,-0.121268 0.359645,0 0.416283,0.199874 0.463164,1.63452 l 0.04478,1.370162 0.850727,0 0.850729,0 0.04476,-1.346877 c 0.0439,-1.320746 0.04912,-1.349861 0.268651,-1.50056 0.12314,-0.08452 0.32976,-0.154484 0.459175,-0.155471 0.434797,-0.0032 0.481103,0.147737 0.481103,1.569083 0,0.836274 0.03512,1.336977 0.09773,1.393012 0.06025,0.05392 0.403698,0.07852 0.895505,0.06415 l 0.797781,-0.02333 0.02318,-1.722685 c 0.02036,-1.512676 0.004,-1.756177 -0.134331,-1.997426 -0.237271,-0.413876 -0.568011,-0.591099 -1.176642,-0.630489 -0.636559,-0.0412 -1.086029,0.07917 -1.494791,0.400287 l -0.30458,0.239277 -0.223228,-0.237368 c -0.312137,-0.331909 -0.669872,-0.443764 -1.290739,-0.403581 -0.399268,0.02584 -0.632647,0.0958 -0.962873,0.288634 l -0.435874,0.254528 -0.02928,-0.218897 c -0.01604,-0.120389 -0.06111,-0.248346 -0.1,-0.284339 -0.06201,-0.05737 -0.627649,0.01202 -1.480043,0.181725 l -0.266068,0.05295 0.02848,1.998629 c 0.01564,1.099244 0.04797,2.02694 0.07182,2.061544 0.02383,0.0346 0.432983,0.05263 0.909217,0.04007 l 0.865881,-0.02286 0.02451,-1.381071 z m -16.11739,-7.678338 c 0.982427,-0.178601 2.002126,-0.641277 2.731791,-1.239511 0.333869,-0.27373 0.664353,-0.596867 0.734409,-0.71808 0.118827,-0.205615 0.107917,-0.249263 -0.162769,-0.651123 -0.603335,-0.89571 -1.364299,-1.832908 -1.488247,-1.832913 -0.07082,-4e-6 -0.361617,0.163689 -0.646229,0.363754 -0.284611,0.200068 -0.75054,0.461475 -1.0354,0.580905 -0.460098,0.192901 -0.622913,0.217145 -1.458205,0.217145 -0.728492,0 -1.013796,-0.03273 -1.266671,-0.14535 -0.609273,-0.27132 -1.043505,-0.680852 -1.393214,-1.313962 -0.311165,-0.563331 -0.339176,-0.67211 -0.370972,-1.440597 -0.02858,-0.690989 -0.0016,-0.922065 0.159681,-1.36942 0.242525,-0.672568 0.695001,-1.236763 1.239776,-1.545885 0.573413,-0.325372 1.019235,-0.418247 1.812281,-0.377542 0.837153,0.04296 1.493863,0.296981 2.329382,0.900998 0.559047,0.404147 0.613264,0.425957 0.787491,0.316768 0.175585,-0.110035 0.920434,-1.178649 1.347077,-1.932592 0.303503,-0.536337 0.261449,-0.666918 -0.390522,-1.212613 -0.940683,-0.787345 -2.128631,-1.224935 -3.723946,-1.371744 -2.415561,-0.222294 -4.429575,0.501349 -5.867146,2.108084 -0.58161,0.650052 -1.192941,1.747332 -1.435374,2.576361 -0.245301,0.838827 -0.223138,2.808694 0.04147,3.685744 0.563397,1.867407 1.985033,3.378353 3.833722,4.074557 1.168187,0.439931 2.873775,0.572051 4.221617,0.327014 z m -9.306859,-0.174976 c 0.136376,-0.228706 0.295467,-1.613255 0.264692,-2.303591 l -0.02858,-0.640999 -0.940278,0 c -0.517153,0 -1.8369,0.03164 -2.932773,0.07029 l -1.992495,0.07029 0,-2.442262 c 0,-1.343244 0.04029,-3.177688 0.08953,-4.076538 0.04924,-0.898852 0.09962,-1.939155 0.111937,-2.311784 l 0.02241,-0.677507 -2.000108,-0.0036 c -1.384794,-0.0025 -2.026005,0.02437 -2.08429,0.08721 -0.05258,0.05669 -0.04838,1.154422 0.01119,2.924558 0.05246,1.558593 0.0708,4.239996 0.04077,5.958675 -0.03663,2.095946 -0.02417,3.164445 0.03783,3.245059 0.07742,0.10065 0.533099,0.127315 2.8047,0.164048 5.953977,0.09627 6.50312,0.09096 6.595456,-0.06388 z m 22.084425,-0.210634 c 0.442192,-0.120946 0.990398,-0.310689 1.218233,-0.421641 1.403446,-0.683454 2.628085,-2.151642 3.146076,-3.771754 0.164714,-0.515151 0.199611,-0.826175 0.200373,-1.78562 0.0011,-1.382483 -0.108459,-1.814615 -0.770031,-3.036987 -0.376697,-0.696012 -0.564613,-0.935084 -1.138848,-1.44888 -1.087308,-0.972866 -2.290229,-1.414206 -4.383155,-1.608139 -1.293288,-0.119833 -6.235807,-0.07224 -6.385083,0.0615 -0.08473,0.0759 -0.08435,0.760844 0.0018,3.144808 0.08676,2.401307 0.087,3.657824 0.0012,5.923904 -0.05989,1.581875 -0.08498,2.931854 -0.05577,2.999955 0.07665,0.178709 0.429723,0.194021 4.092621,0.177507 l 3.268587,-0.01471 0.803988,-0.219909 -6e-6,0 z"
         id="path5567"
         inkscape:connector-curvature="0" />
      <rect
         style="opacity:1;fill:#00c0b5;fill-opacity:1;stroke:#00c0b5;stroke-width:1.89705551;stroke-linejoin:miter;stroke-opacity:0"
         id="rect5596"
         width="0.089550309"
         height="1.7627475"
         x="27.567259"
         y="33.044426"
         rx="1.0027666" />
      <g
         style="stroke:#00c0b5;stroke-opacity:1"
         id="g5607"
         transform="matrix(2.0055333,0,0,1.7944453,-2.9693981,3.425514)">
        <rect
           rx="0.5"
           y="4.3606434"
           x="2.2772326"
           height="23.933268"
           width="30.318451"
           id="rect5594"
           style="opacity:1;fill:#00c0b5;fill-opacity:1;stroke:#00c0b5;stroke-linejoin:miter;stroke-opacity:1" />
        <rect
           rx="0.47747183"
           y="5.9481544"
           x="3.6414804"
           height="20.802904"
           width="27.5453"
           id="rect5248"
           style="opacity:1;fill:#ffffff;fill-opacity:1;stroke:#00c0b5;stroke-width:1.04940128;stroke-linejoin:miter;stroke-opacity:1" />
      </g>
      <path
         d="M 10.324024,31.072806 Q 8.6756154,30.56159 8.6756154,28.276771 l 0,-1.564944 q 0,-2.649974 3.6724046,-2.649974 1.471048,0 2.566509,0.636412 1.095461,0.636409 1.095461,2.013562 l 0,1.564944 q 0,2.284819 -1.648408,2.796035 1.731873,0.41732 1.731873,2.305687 l 0,3.077723 q 0,2.837767 -3.766301,2.837767 -3.7350023,0 -3.7350023,-2.837767 l 0,-3.077723 q 0,-1.898801 1.7318723,-2.305687 z m 2.56651,-1.387584 0,-3.119457 q 0,-0.448618 -0.542514,-0.448618 -0.552948,0 -0.552948,0.448618 l 0,3.119457 q 0,0.448617 0.552948,0.448617 0.542514,0 0.542514,-0.448617 z m 0,7.073551 0,-4.360981 q 0,-0.448617 -0.542514,-0.448617 -0.552948,0 -0.552948,0.448617 l 0,4.360981 q 0,0.448618 0.552948,0.448618 0.542514,0 0.542514,-0.448618 z"
         style="font-style:normal;font-variant:normal;font-weight:normal;font-stretch:normal;font-size:10px;line-height:125%;font-family:Haettenschweiler;-inkscape-font-specification:Haettenschweiler;text-align:start;letter-spacing:0px;word-spacing:0px;writing-mode:lr-tb;text-anchor:start;fill:#00c0b5;fill-opacity:1;stroke:none;stroke-width:1px;stroke-linecap:butt;stroke-linejoin:miter;stroke-opacity:1"
         id="path4215"
         inkscape:connector-curvature="0" />
      <path
         d="m 19.411137,31.980475 -2.71257,0 0,-2.180491 2.71257,0 0,2.180491 z m 0,7.198745 -2.71257,0 0,-2.180488 2.71257,0 0,2.180488 z"
         style="font-style:normal;font-variant:normal;font-weight:normal;font-stretch:normal;font-size:10px;line-height:125%;font-family:Haettenschweiler;-inkscape-font-specification:Haettenschweiler;text-align:start;letter-spacing:0px;word-spacing:0px;writing-mode:lr-tb;text-anchor:start;fill:#00c0b5;fill-opacity:1;stroke:none;stroke-width:1px;stroke-linecap:butt;stroke-linejoin:miter;stroke-opacity:1"
         id="path4217"
         inkscape:connector-curvature="0" />
      <path
         d="m 20.089281,36.602279 0,-9.629628 q 0,-2.910798 3.870629,-2.910798 3.7976,0 3.7976,2.889931 l 0,9.629628 q 0,1.293689 -1.074594,2.00313 -1.064162,0.709441 -2.74387,0.709441 -1.731873,0 -2.796036,-0.699008 -1.053729,-0.699008 -1.053729,-1.992696 z m 4.381845,0.15649 0,-10.193009 q 0,-0.448617 -0.53208,-0.448617 -0.563381,0 -0.563381,0.448617 l 0,10.193009 q 0,0.448617 0.563381,0.448617 0.53208,0 0.53208,-0.448617 z"
         style="font-style:normal;font-variant:normal;font-weight:normal;font-stretch:normal;font-size:10px;line-height:125%;font-family:Haettenschweiler;-inkscape-font-specification:Haettenschweiler;text-align:start;letter-spacing:0px;word-spacing:0px;writing-mode:lr-tb;text-anchor:start;fill:#00c0b5;fill-opacity:1;stroke:none;stroke-width:1px;stroke-linecap:butt;stroke-linejoin:miter;stroke-opacity:1"
         id="path4219"
         inkscape:connector-curvature="0" />
      <path
         d="m 28.393922,36.602279 0,-9.629628 q 0,-2.910798 3.87063,-2.910798 3.7976,0 3.7976,2.889931 l 0,9.629628 q 0,1.293689 -1.074596,2.00313 -1.064163,0.709441 -2.743869,0.709441 -1.731872,0 -2.796035,-0.699008 -1.05373,-0.699008 -1.05373,-1.992696 z m 4.381846,0.15649 0,-10.193009 q 0,-0.448617 -0.532081,-0.448617 -0.56338,0 -0.56338,0.448617 l 0,10.193009 q 0,0.448617 0.56338,0.448617 0.532081,0 0.532081,-0.448617 z"
         style="font-style:normal;font-variant:normal;font-weight:normal;font-stretch:normal;font-size:10px;line-height:125%;font-family:Haettenschweiler;-inkscape-font-specification:Haettenschweiler;text-align:start;letter-spacing:0px;word-spacing:0px;writing-mode:lr-tb;text-anchor:start;fill:#00c0b5;fill-opacity:1;stroke:none;stroke-width:1px;stroke-linecap:butt;stroke-linejoin:miter;stroke-opacity:1"
         id="path4221"
         inkscape:connector-curvature="0" />
      <path
         d="m 43.730382,39.158356 -2.629108,0 0,-0.469485 q -0.333855,0.636412 -1.909231,0.636412 -2.430883,0 -2.430883,-1.8988 l 0,-2.430881 q 0,-0.813772 0.584247,-1.418884 0.594679,-0.605112 2.378716,-1.512781 1.032865,-0.521647 1.032865,-0.834637 l 0,-1.794468 q 0,-0.594681 -0.511216,-0.594681 -0.584247,0 -0.584247,1.450182 0,0.260826 0.0313,0.77204 0.04173,0.511215 0.04173,0.772039 l -2.869067,0 0,-2.420447 q 0,-2.451747 3.54721,-2.451747 3.317683,0 3.317683,2.556076 l 0,9.640062 z m -2.973394,-2.263953 0,-3.119457 q -1.022432,0.25039 -1.022432,0.918099 l 0,2.201358 q 0,0.552947 0.532081,0.552947 0.490351,0 0.490351,-0.552947 z"
         style="font-style:normal;font-variant:normal;font-weight:normal;font-stretch:normal;font-size:10px;line-height:125%;font-family:Haettenschweiler;-inkscape-font-specification:Haettenschweiler;text-align:start;letter-spacing:0px;word-spacing:0px;writing-mode:lr-tb;text-anchor:start;fill:#00c0b5;fill-opacity:1;stroke:none;stroke-width:1px;stroke-linecap:butt;stroke-linejoin:miter;stroke-opacity:1"
         id="path4223"
         inkscape:connector-curvature="0" />
      <path
         d="m 55.415304,39.158356 -2.962963,0 0,-9.681793 q 0,-0.552947 -0.511213,-0.552947 -0.521649,0 -0.521649,0.53208 l 0,9.70266 -2.962963,0 0,-9.70266 q 0,-0.552947 -0.511216,-0.552947 -0.521647,0 -0.521647,0.532083 l 0,9.723524 -2.962963,0 0,-12.112674 2.962963,0 0,0.427751 q 0.615545,-0.511215 1.846635,-0.511215 1.032863,0 1.877934,0.824204 0.782472,-0.824204 2.138757,-0.824204 0.772039,0 1.450182,0.469484 0.678143,0.459049 0.678143,1.283255 l 0,10.443399 z"
         style="font-style:normal;font-variant:normal;font-weight:normal;font-stretch:normal;font-size:10px;line-height:125%;font-family:Haettenschweiler;-inkscape-font-specification:Haettenschweiler;text-align:start;letter-spacing:0px;word-spacing:0px;writing-mode:lr-tb;text-anchor:start;fill:#00c0b5;fill-opacity:1;stroke:none;stroke-width:1px;stroke-linecap:butt;stroke-linejoin:miter;stroke-opacity:1"
         id="path4225"
         inkscape:connector-curvature="0" />
    </g>
  </g>
</svg>
