<?xml version="1.0" encoding="UTF-8" standalone="no"?>
<svg
   xmlns:dc="http://purl.org/dc/elements/1.1/"
   xmlns:cc="http://creativecommons.org/ns#"
   xmlns:rdf="http://www.w3.org/1999/02/22-rdf-syntax-ns#"
   xmlns:svg="http://www.w3.org/2000/svg"
   xmlns="http://www.w3.org/2000/svg"
   xmlns:sodipodi="http://sodipodi.sourceforge.net/DTD/sodipodi-0.dtd"
   xmlns:inkscape="http://www.inkscape.org/namespaces/inkscape"
   version="1.1"
   x="0px"
   y="0px"
   viewBox="0 0 512 640"
   enable-background="new 0 0 512 512"
   xml:space="preserve"
   id="svg2"
   inkscape:version="0.91 r13725"
   sodipodi:docname="printer_icon.svg"><metadata
     id="metadata24"><rdf:RDF><cc:Work
         rdf:about=""><dc:format>image/svg+xml</dc:format><dc:type
           rdf:resource="http://purl.org/dc/dcmitype/StillImage" /></cc:Work></rdf:RDF></metadata><defs
     id="defs22" /><sodipodi:namedview
     pagecolor="#ffffff"
     bordercolor="#666666"
     borderopacity="1"
     objecttolerance="10"
     gridtolerance="10"
     guidetolerance="10"
     inkscape:pageopacity="0"
     inkscape:pageshadow="2"
     inkscape:window-width="1920"
     inkscape:window-height="1018"
     id="namedview20"
     showgrid="false"
     inkscape:zoom="1.2796875"
     inkscape:cx="256"
     inkscape:cy="320"
     inkscape:window-x="-8"
     inkscape:window-y="-8"
     inkscape:window-maximized="1"
     inkscape:current-layer="svg2" /><g
     id="g4173"
     transform="translate(0,63.72024)"
     style="fill:#00c0b5;fill-opacity:1"><g
       id="g4165"
       style="fill:#00c0b5;fill-opacity:1"><path
         d="m 480,0.55952 -447.999997,0 C 14.344,0.55952 0,14.903519 0,32.559519 L 0,192.55952 c 0,17.688 14.344,32 32.000003,32 l 64,0 c 123.782617,0 140.706477,0 319.999997,0 l 64,0 c 17.688,0 32,-14.313 32,-32 L 512,32.559519 C 512,14.903519 497.688,0.55952 480,0.55952 Z m -32,96 c -17.688,0 -32,-14.313 -32,-32.000001 0,-17.656 14.313,-32 32,-32 17.687,0 32,14.344 32,32 0,17.688001 -14.312,32.000001 -32,32.000001 z"
         id="path4157"
         inkscape:connector-curvature="0"
         sodipodi:nodetypes="sssssccsssssssss"
         style="fill:#00c0b5;fill-opacity:1" /><g
         id="g4159"
         style="fill:#00c0b5;fill-opacity:1"><path
           sodipodi:nodetypes="ssssscsssscsssscccccsssss"
           d="M 480,128 32,128 C 14.344,128 0,142.344 0,160 l 0,160 c 0,17.688 14.344,32 32,32 l 64,0 0,128 c 0,17.688 14.344,32 32,32 l 256,0 c 17.688,0 32,-14.313 32,-32 l 0,-128 64,0 c 17.688,0 32,-14.313 32,-32 l 0,-160 c 0,-17.656 -14.312,-32 -32,-32 z m -96,352 -256,0 0,-302 256,0 z m 64,-256 c -17.688,0 -32,-14.313 -32,-32 0,-17.656 14.313,-32 32,-32 17.687,0 32,14.344 32,32 0,17.688 -14.312,32 -32,32 z"
           id="path8"
           inkscape:connector-curvature="0"
           style="fill:#00c0b5;fill-opacity:1" /><rect
           x="160"
           y="288"
           width="128"
           height="32"
           id="rect10"
           style="fill:#00c0b5;fill-opacity:1" /><rect
           x="160"
           y="352"
           width="192"
           height="32"
           id="rect12"
           style="fill:#00c0b5;fill-opacity:1" /><rect
           x="160"
           y="416"
           width="192"
           height="32"
           id="rect14"
           style="fill:#00c0b5;fill-opacity:1" /></g></g></g></svg>