<?xml version="1.0" encoding="UTF-8" standalone="no"?>
<!-- Created with Inkscape (http://www.inkscape.org/) -->

<svg
   xmlns:dc="http://purl.org/dc/elements/1.1/"
   xmlns:cc="http://creativecommons.org/ns#"
   xmlns:rdf="http://www.w3.org/1999/02/22-rdf-syntax-ns#"
   xmlns:svg="http://www.w3.org/2000/svg"
   xmlns="http://www.w3.org/2000/svg"
   xmlns:sodipodi="http://sodipodi.sourceforge.net/DTD/sodipodi-0.dtd"
   xmlns:inkscape="http://www.inkscape.org/namespaces/inkscape"
   width="64"
   height="64"
   id="svg4843"
   version="1.1"
   inkscape:version="0.91 r13725"
   viewBox="0 0 64 64"
   sodipodi:docname="tft_icon_64.svg">
  <defs
     id="defs4845">
    <inkscape:path-effect
       effect="spiro"
       id="path-effect6136"
       is_visible="true" />
    <inkscape:path-effect
       effect="spiro"
       id="path-effect6132"
       is_visible="true" />
    <inkscape:path-effect
       effect="spiro"
       id="path-effect5895"
       is_visible="true" />
    <inkscape:path-effect
       effect="spiro"
       id="path-effect5891"
       is_visible="true" />
    <inkscape:path-effect
       effect="spiro"
       id="path-effect5768"
       is_visible="true" />
    <inkscape:path-effect
       effect="spiro"
       id="path-effect5705"
       is_visible="true" />
    <inkscape:path-effect
       effect="spiro"
       id="path-effect5651"
       is_visible="true" />
    <inkscape:path-effect
       effect="spiro"
       id="path-effect5639"
       is_visible="true" />
    <inkscape:path-effect
       effect="spiro"
       id="path-effect5627"
       is_visible="true" />
    <inkscape:path-effect
       effect="spiro"
       id="path-effect5623"
       is_visible="true" />
    <inkscape:path-effect
       effect="spiro"
       id="path-effect5613"
       is_visible="true" />
    <inkscape:path-effect
       effect="spiro"
       id="path-effect5651-1"
       is_visible="true" />
    <inkscape:path-effect
       effect="spiro"
       id="path-effect5705-4"
       is_visible="true" />
    <inkscape:path-effect
       effect="spiro"
       id="path-effect5768-1"
       is_visible="true" />
    <inkscape:path-effect
       effect="spiro"
       id="path-effect5768-4"
       is_visible="true" />
  </defs>
  <sodipodi:namedview
     id="base"
     pagecolor="#ffffff"
     bordercolor="#666666"
     borderopacity="1.0"
     inkscape:pageopacity="0.0"
     inkscape:pageshadow="2"
     inkscape:zoom="7.7781746"
     inkscape:cx="6.3647973"
     inkscape:cy="23.337332"
     inkscape:current-layer="layer1"
     showgrid="true"
     inkscape:document-units="px"
     inkscape:grid-bbox="true"
     inkscape:window-width="1920"
     inkscape:window-height="1018"
     inkscape:window-x="-8"
     inkscape:window-y="-8"
     inkscape:window-maximized="1"
     showguides="false" />
  <metadata
     id="metadata4848">
    <rdf:RDF>
      <cc:Work
         rdf:about="">
        <dc:format>image/svg+xml</dc:format>
        <dc:type
           rdf:resource="http://purl.org/dc/dcmitype/StillImage" />
        <dc:title />
      </cc:Work>
    </rdf:RDF>
  </metadata>
  <g
     id="layer1"
     inkscape:label="Layer 1"
     inkscape:groupmode="layer">
    <g
       transform="matrix(2.3629975,0,0,2.1142854,5.7755419,-1.3498804)"
       style="font-style:normal;font-variant:normal;font-weight:bold;font-stretch:normal;font-size:10px;line-height:125%;font-family:'Berlin Sans FB Demi';-inkscape-font-specification:'Berlin Sans FB Demi Bold';text-align:start;letter-spacing:0px;word-spacing:0px;writing-mode:lr-tb;text-anchor:start;fill:#00c0b5;fill-opacity:1;stroke:none;stroke-width:1px;stroke-linecap:butt;stroke-linejoin:miter;stroke-opacity:1"
       id="flowRoot5266" />
    <g
       id="g5626"
       transform="matrix(1.0219813,0,0,0.99996645,-1.7369742,9.674413e-4)">
      <path
         style="opacity:1;fill:#00c0b5;fill-opacity:0;stroke:#008080;stroke-width:0.0847066;stroke-linejoin:miter;stroke-opacity:0"
         d="M 15.842597,52.373752 C 15.38435,52.146498 15.391561,52.231504 15.388162,47.017044 l -0.0032,-4.867588 -7.2784242,0 c -6.5840357,0 -7.29831513,-0.01238 -7.48691043,-0.130653 -0.48418997,-0.303444 -0.45821755,0.731748 -0.45821755,-18.263351 0,-15.8597802 0.0139505,-17.6242152 0.14124525,-17.8642342 0.2871167,-0.541384 -0.0584165,-0.519086 8.04374933,-0.519086 l 7.3072036,0 0,-4.77141028 c 0,-5.25433282 -0.01494,-5.10887172 0.551587,-5.37099772 0.208591,-0.096514 0.461276,-0.1221391 0.991811,-0.1005821 0.672472,0.027324 0.726334,0.043371 0.972286,0.2896665 l 0.260376,0.2607397 0,4.84629172 0,4.84629218 1.877877,0 1.877879,0 0.02507,-4.82752508 c 0.02752,-5.30100092 0.002,-5.06495972 0.575073,-5.30829732 0.365156,-0.1550403 1.310891,-0.1550403 1.676048,0 0.57312,0.2433376 0.547547,0.0073 0.575071,5.30829732 l 0.02507,4.82752508 1.877877,0 1.877879,0 0,-4.84629218 0,-4.84629172 0.260377,-0.2607397 c 0.245952,-0.2462957 0.299813,-0.2623422 0.972284,-0.2896665 0.530536,-0.021557 0.783221,0.00407 0.991813,0.1005821 0.566525,0.262126 0.551586,0.116665 0.551586,5.37099772 l 0,4.77141028 1.880556,0 1.880556,0 0,-4.77141028 c 0,-5.25433282 -0.01484,-5.10887172 0.551586,-5.37099772 0.208592,-0.096514 0.461277,-0.1221391 0.991813,-0.1005821 0.672471,0.027324 0.726334,0.043371 0.972284,0.2896665 l 0.260377,0.2607397 0,4.84629172 0,4.84629218 1.880556,0 1.880557,0 0,-4.73529098 c 0,-5.27874932 -0.01524,-5.14152992 0.599638,-5.40259342 0.233921,-0.09932 0.489473,-0.1268695 0.973843,-0.1049844 0.580112,0.026211 0.688449,0.056889 0.928951,0.263053 l 0.272253,0.2333816 0.02308,4.85318572 0.02306,4.85318548 8.12084,0.04006 8.120837,0.04006 0.274504,0.235334 0.274503,0.235334 0,17.8990862 0,17.899085 -0.261762,0.234211 -0.261762,0.234211 -8.290293,0 -8.290291,0 0,4.895631 0,4.895631 -0.304472,0.272424 c -0.299599,0.268065 -0.316939,0.272425 -1.083558,0.272425 -0.766621,0 -0.783961,-0.0043 -1.08356,-0.272425 l -0.30447,-0.272424 0,-4.895631 0,-4.895631 -1.880556,0 -1.880557,0 0,4.811474 c 0,4.111976 -0.01945,4.845131 -0.133809,5.043003 -0.230981,0.399653 -0.453864,0.481634 -1.309444,0.481634 -0.733356,0 -0.792032,-0.01292 -1.054678,-0.232459 l -0.278124,-0.23246 0,-4.937188 0,-4.937191 -1.902944,0.02162 -1.902944,0.02162 -0.04476,4.954682 -0.04478,4.954681 -0.251258,0.193342 c -0.224056,0.17241 -0.335814,0.193343 -1.03229,0.193343 -0.577138,0 -0.835461,-0.03411 -0.98952,-0.130654 -0.45615,-0.285871 -0.458218,-0.310394 -0.458218,-5.435447 l 0,-4.770005 -1.880556,0 -1.880557,0 0,4.851534 c 0,5.264526 0.0072,5.186179 -0.490024,5.388852 -0.129136,0.05265 -0.554654,0.09573 -0.945581,0.09573 -0.658763,0 -0.732178,-0.01705 -1.003228,-0.23377 l -0.292451,-0.233769 -0.02439,-4.934285 -0.02439,-4.934287 -1.876552,0 -1.87655,0 -0.02439,4.934287 -0.02439,4.934285 -0.292451,0.233769 c -0.273794,0.218829 -0.339559,0.233578 -1.029847,0.230919 -0.438825,-0.0017 -0.824031,-0.04581 -0.951396,-0.108975 z m 43.698042,-12.6894 0.261303,-0.26167 0,-15.587006 c 0,-13.9921392 -0.01444,-15.6118402 -0.140267,-15.8297142 -0.292816,-0.506646 1.921303,-0.470458 -28.784477,-0.470458 -30.57887133,0 -28.4515704,-0.03327 -28.8058467,0.45049 -0.1568547,0.214182 -0.1647766,0.860023 -0.1900082,15.4908272 -0.01448,8.39703 -7.88e-4,15.427408 0.030422,15.62306 0.040574,0.254321 0.1413801,0.431453 0.3536064,0.621341 l 0.2968539,0.265608 28.3585586,-0.0204 28.358558,-0.0204 0.261303,-0.26167 z"
         id="path5565"
         inkscape:connector-curvature="0" />
      <path
         style="opacity:1;fill:#00c0b5;fill-opacity:0;stroke:#008080;stroke-width:0.16941321;stroke-linejoin:miter;stroke-opacity:0"
         d="m 15.621988,52.208121 c -0.157857,-0.141243 -0.214921,-1.502787 -0.214921,-5.127994 l 0,-4.935693 -7.3329692,0 -7.33296983,0 -0.2788066,-0.356156 C 0.21407967,41.471167 0.18351468,39.498693 0.18351468,23.795834 c 0,-15.7028582 0.0305649,-17.6753322 0.27880669,-17.9924432 l 0.2788066,-0.356156 7.51207043,0 7.5120706,0 0,-4.93569378 c 0,-3.62520612 0.05706,-4.98675122 0.21492,-5.12799302 0.118206,-0.1057648 0.589287,-0.1922997 1.046846,-0.1922997 1.45593,0 1.424743,-0.1186665 1.424743,5.42104832 l 0,4.83493818 1.880556,0 1.880557,0 0,-4.77183748 c 0,-5.54226642 -0.01504,-5.48414902 1.421031,-5.48414902 0.501397,0 0.946587,0.089666 1.061779,0.213853 0.133067,0.143468 0.213974,1.8180485 0.245804,5.08793052 l 0.04745,4.87407798 1.925332,0.04548 1.925332,0.04548 0,-4.88159418 c 0,-5.52127292 -0.03393,-5.38523552 1.343254,-5.38523552 1.377066,0 1.343254,-0.1354161 1.343254,5.37981412 l 0,4.87617258 1.970108,0 1.970107,0 0,-4.93569398 c 0,-3.62520612 0.05706,-4.98675122 0.214921,-5.12799302 0.118207,-0.1057647 0.597208,-0.1922997 1.064449,-0.1922997 1.419958,0 1.407139,-0.049957 1.407139,5.48414902 l 0,4.77183768 1.880556,0 1.880557,0 0,-4.77183768 c 0,-5.53410592 -0.01284,-5.48414902 1.40714,-5.48414902 0.467241,0 0.946243,0.086535 1.064449,0.1922997 0.157855,0.1412419 0.214921,1.5027869 0.214921,5.12799302 l 0,4.93569398 8.202807,0 c 6.141162,0 8.256827,0.04833 8.417731,0.192299 0.164614,0.147283 0.214921,4.4038362 0.214921,18.1827122 0,17.622584 -0.007,17.993804 -0.346428,18.1563 -0.224261,0.10738 -3.2243,0.165879 -8.50728,0.165879 l -8.160851,0 0,4.876172 c 0,4.219218 -0.03792,4.910099 -0.281445,5.127993 -0.337708,0.302163 -1.872346,0.34387 -2.190145,0.05952 -0.157855,-0.141241 -0.214921,-1.502787 -0.214921,-5.127994 l 0,-4.935693 -1.970105,0 -1.970108,0 0,4.935693 c 0,3.625207 -0.05706,4.986751 -0.214921,5.127994 -0.118206,0.105764 -0.625957,0.1923 -1.128333,0.1923 -0.502378,0 -1.010129,-0.08653 -1.128335,-0.1923 -0.157855,-0.141241 -0.214921,-1.502787 -0.214921,-5.127994 l 0,-4.935693 -1.970105,0 -1.970108,0 0,4.935693 c 0,3.625207 -0.05706,4.986751 -0.214921,5.127994 -0.118206,0.105764 -0.63924,0.1923 -1.157852,0.1923 -0.748949,0 -0.981075,-0.06377 -1.128336,-0.309965 -0.116,-0.193951 -0.185391,-2.113258 -0.185391,-5.127994 l 0,-4.818028 -1.880557,0 -1.880556,0 0,4.818028 c 0,3.014736 -0.06939,4.934043 -0.185391,5.127994 -0.147267,0.246197 -0.379387,0.309965 -1.128334,0.309965 -0.518612,0 -1.039646,-0.08653 -1.157852,-0.1923 -0.157856,-0.141241 -0.214921,-1.502787 -0.214921,-5.127994 l 0,-4.935693 -1.970108,0 -1.970106,0 0,4.935693 c 0,3.625207 -0.05706,4.986751 -0.214921,5.127994 -0.278864,0.249512 -1.977804,0.249512 -2.256668,0 z m 43.80398,-12.396394 0.398053,-0.249462 0,-15.722837 c 0,-14.4053822 -0.02483,-15.7473912 -0.29641,-16.0158912 -0.284774,-0.281554 -1.408079,-0.293055 -28.621866,-0.293055 -24.179071,0 -28.3763509,0.03329 -28.6731167,0.227432 -0.3394632,0.222072 -0.3487745,0.596132 -0.3950425,15.8696782 l -0.047385,15.642244 0.4422203,0.395676 0.4422203,0.395675 28.1766366,0 c 25.212189,0 28.218518,-0.02625 28.57469,-0.24946 z"
         id="path5432"
         inkscape:connector-curvature="0" />
      <path
         style="opacity:1;fill:#00c0b5;fill-opacity:0;stroke:#008080;stroke-width:0.16941321;stroke-linejoin:miter;stroke-opacity:0"
         d="m 15.59247,52.090455 c -0.11601,-0.19395 -0.185403,-2.113257 -0.185403,-5.127993 l 0,-4.818028 -7.3329692,0 -7.33296983,0 -0.2788066,-0.356156 C 0.21407967,41.471167 0.18351468,39.498693 0.18351468,23.795834 c 0,-15.7028582 0.0305649,-17.6753322 0.27880669,-17.9924432 l 0.2788066,-0.356156 7.51207043,0 7.5120706,0 0,-4.93569378 c 0,-3.62520612 0.05706,-4.98675122 0.21492,-5.12799302 0.118206,-0.1057648 0.589287,-0.1922997 1.046846,-0.1922997 1.45593,0 1.424743,-0.1186665 1.424743,5.42104832 l 0,4.83493818 1.880556,0 1.880557,0 0,-4.77183748 c 0,-5.54226642 -0.01504,-5.48414902 1.421031,-5.48414902 0.501397,0 0.946587,0.089666 1.061779,0.213853 0.133067,0.143468 0.213974,1.8180485 0.245804,5.08793052 l 0.04745,4.87407798 1.925332,0.04548 1.925332,0.04548 0,-4.88159418 c 0,-5.52127292 -0.03393,-5.38523552 1.343254,-5.38523552 1.377066,0 1.343254,-0.1354161 1.343254,5.37981412 l 0,4.87617258 1.970108,0 1.970107,0 0,-4.93569398 c 0,-3.62520612 0.05706,-4.98675122 0.214921,-5.12799302 0.118207,-0.1057647 0.597208,-0.1922997 1.064449,-0.1922997 1.419958,0 1.407139,-0.049957 1.407139,5.48414902 l 0,4.77183768 1.880556,0 1.880557,0 0,-4.77183768 c 0,-5.53410592 -0.01284,-5.48414902 1.40714,-5.48414902 0.467241,0 0.946243,0.086535 1.064449,0.1922997 0.157855,0.1412419 0.214921,1.5027869 0.214921,5.12799302 l 0,4.93569398 8.202807,0 c 6.141162,0 8.256827,0.04833 8.417731,0.192299 0.164614,0.147283 0.214921,4.4038362 0.214921,18.1827122 0,17.622584 -0.007,17.993804 -0.346428,18.1563 -0.224261,0.10738 -3.2243,0.165879 -8.50728,0.165879 l -8.160851,0 0,4.862781 c 0,4.507469 -0.02393,4.88216 -0.32753,5.127994 -0.386113,0.31265 -1.821562,0.361466 -2.14406,0.07291 -0.157855,-0.14124 -0.214921,-1.502787 -0.214921,-5.127993 l 0,-4.935694 -1.970105,0 -1.970108,0 0,4.818028 c 0,3.014737 -0.06939,4.934043 -0.185411,5.127994 -0.147267,0.246198 -0.379387,0.309965 -1.128333,0.309965 -0.518613,0 -1.039649,-0.08653 -1.157855,-0.1923 -0.157855,-0.14124 -0.214921,-1.502787 -0.214921,-5.127993 l 0,-4.935694 -1.970105,0 -1.970108,0 0,4.935694 c 0,3.625206 -0.05706,4.986751 -0.214921,5.127993 -0.317797,0.284348 -1.852437,0.242642 -2.190145,-0.05952 -0.243525,-0.217895 -0.281444,-0.908776 -0.281444,-5.127994 l 0,-4.876172 -1.880557,0 -1.880556,0 0,4.876172 c 0,4.219218 -0.03792,4.910099 -0.281443,5.127994 -0.337707,0.302163 -1.872347,0.343869 -2.190144,0.05952 -0.157856,-0.14124 -0.214921,-1.502787 -0.214921,-5.127993 l 0,-4.935694 -1.970108,0 -1.970106,0 0,4.935694 c 0,3.625206 -0.05706,4.986751 -0.214921,5.127993 -0.118206,0.105765 -0.63924,0.1923 -1.157853,0.1923 -0.748947,0 -0.981073,-0.06377 -1.128333,-0.309965 z m 43.833498,-12.278728 0.398053,-0.249462 0,-15.722837 c 0,-14.4053822 -0.02483,-15.7473912 -0.29641,-16.0158912 -0.284774,-0.281554 -1.408079,-0.293055 -28.621866,-0.293055 -24.179071,0 -28.3763509,0.03329 -28.6731167,0.227432 -0.3394546,0.222066 -0.3487755,0.595826 -0.3950275,15.8401672 l -0.047369,15.612733 0.3737949,0.425186 0.3737951,0.425187 28.2450482,0 c 25.274105,0 28.286916,-0.02623 28.6431,-0.24946 z"
         id="path5434"
         inkscape:connector-curvature="0" />
      <g
         style="stroke:#00c0b5;stroke-opacity:1"
         transform="translate(-0.21301298,-8.4389479)"
         id="g5506">
        <g
           style="stroke:#00c0b5;stroke-opacity:1"
           id="g5641">
          <rect
             style="opacity:1;fill:#00c0b5;fill-opacity:1;stroke:#00c0b5;stroke-width:1.89705551;stroke-linejoin:miter;stroke-opacity:1"
             id="rect5594"
             width="60.804665"
             height="42.946941"
             x="2.9998999"
             y="11.245652"
             rx="1.0027666" />
          <rect
             style="opacity:1;fill:#ffffff;fill-opacity:1;stroke:#00c0b5;stroke-width:1.81963813;stroke-linejoin:miter;stroke-opacity:1"
             id="rect5248"
             width="51.709053"
             height="33.318989"
             x="7.5477057"
             y="15.281514"
             rx="0.89632773" />
        </g>
      </g>
      <path
         inkscape:connector-curvature="0"
         id="path5567"
         d="M 2.4106595,39.775301 C 1.9281208,39.472891 1.9524421,40.323194 1.9524421,23.755446 1.9524421,6.7324038 1.9061601,8.0079778 2.5334703,7.7416318 2.8040647,7.6267408 5.4683208,7.6167868 30.997672,7.6352838 l 28.165662,0.02041 0.274529,0.235335 0.27453,0.235334 0,15.6555882 0,15.655589 -0.261762,0.23421 -0.261763,0.234212 -28.284862,0 c -26.0046762,0 -28.3016679,-0.01059 -28.4933465,-0.130653 z m 4.0856628,-3.575118 c 0.048562,-0.05509 0.3658029,-0.710943 0.7049799,-1.457461 l 0.6166852,-1.357304 0.024465,1.420005 0.024465,1.420006 1.0012549,-0.02265 1.001255,-0.02265 0.0041,-3.104839 0.0041,-3.104842 -0.9496782,10e-7 -0.949678,2e-6 -0.3649928,0.701092 C 6.2452857,33.299293 6.2502881,33.291005 6.1303494,33.128615 6.0680054,33.044204 5.6995037,32.344159 5.3114554,31.572956 4.923407,30.801754 4.5681161,30.1257 4.5219201,30.070614 4.4640564,30.001618 4.1453172,29.970466 3.4973593,29.970466 l -0.9405678,0 0.030536,1.902967 c 0.016786,1.04663 0.019855,2.407752 0.0068,3.024713 -0.013056,0.616963 -0.021734,1.168039 -0.019273,1.224616 0.00341,0.07858 0.2317161,0.09749 0.9671233,0.08012 l 0.962666,-0.02274 -0.031357,-1.402185 c -0.017248,-0.771202 -0.00955,-1.383273 0.017127,-1.360157 0.026662,0.02311 0.3152002,0.600014 0.641195,1.281998 0.3259951,0.681983 0.6516748,1.321096 0.7237332,1.420252 0.1432252,0.19708 0.4987226,0.241518 0.6410026,0.08012 z M 14.20302,36.027988 c 0.826769,-0.37486 1.271519,-1.09244 1.271519,-2.05153 0,-0.895636 -0.455206,-1.597399 -1.285153,-1.98124 -0.38269,-0.176986 -0.582873,-0.21398 -1.177481,-0.217584 -0.607765,-0.0038 -0.793129,0.02938 -1.222375,0.217981 -0.777626,0.341685 -1.194124,0.921673 -1.297527,1.806855 -0.09225,0.789662 0.25936,1.574929 0.910317,2.033076 0.712013,0.501122 1.934613,0.585128 2.8007,0.192442 z m 10.859888,0.05539 c 0.911407,-0.360725 1.378865,-1.061336 1.378865,-2.066593 0,-0.743455 -0.188821,-1.200638 -0.675837,-1.636398 -0.491905,-0.440131 -0.99822,-0.606517 -1.828892,-0.601017 -1.08943,0.0072 -1.750135,0.34662 -2.196354,1.12827 -0.187216,0.327967 -0.221505,0.499889 -0.221505,1.110832 0,0.614007 0.03375,0.781576 0.224277,1.113204 0.575375,1.00154 2.09368,1.436848 3.319446,0.951702 z m 5.352783,0.02302 c 0.315245,-0.145852 0.323921,-0.183182 0.182142,-0.783636 -0.160944,-0.681647 -0.188941,-0.707568 -0.62042,-0.574556 -0.280207,0.08638 -0.44877,0.09322 -0.715195,0.02903 -0.438357,-0.105621 -0.623789,-0.338804 -0.623789,-0.784442 0,-0.282244 0.05226,-0.395669 0.273643,-0.593739 0.250714,-0.224323 0.308874,-0.240622 0.694015,-0.19448 0.231204,0.02771 0.497581,0.05952 0.591949,0.07072 0.138061,0.01633 0.203413,-0.07352 0.334597,-0.460388 0.08967,-0.264411 0.163572,-0.54561 0.164233,-0.624885 0.003,-0.366774 -1.40565,-0.589213 -2.271928,-0.358735 -0.571069,0.151936 -1.345819,0.872949 -1.524564,1.418818 -0.429018,1.31018 0.269489,2.573554 1.64792,2.980554 0.348418,0.102875 1.549165,0.02297 1.867387,-0.124266 z m 13.351547,0.06772 c 0.609351,-0.161913 1.278301,-0.707118 1.500925,-1.223279 0.226912,-0.526101 0.210396,-1.459383 -0.03426,-1.935614 -0.236901,-0.46115 -0.681498,-0.861232 -1.192821,-1.073391 -0.585846,-0.243083 -1.678733,-0.233046 -2.260906,0.02076 -0.834674,0.363894 -1.321674,1.134165 -1.320605,2.088763 7.16e-4,0.602666 0.129738,0.97724 0.477405,1.385618 0.627949,0.737589 1.739261,1.027028 2.830257,0.737139 z m 14.477325,0.0079 c 0.245194,-0.06516 0.557302,-0.222965 0.694665,-0.35125 l 0.249428,-0.232946 -0.227063,-0.389906 c -0.374314,-0.642763 -0.333909,-0.623758 -0.824675,-0.387855 -0.557009,0.267748 -1.355293,0.2557 -1.669227,-0.02519 -0.106173,-0.095 -0.175124,-0.187789 -0.153243,-0.20621 0.0219,-0.01843 0.543519,-0.07504 1.159178,-0.125827 1.681447,-0.138693 1.684999,-0.139572 1.77966,-0.446338 0.09199,-0.298091 -0.0048,-0.883843 -0.201895,-1.22054 -0.189382,-0.323682 -0.665271,-0.730745 -1.080499,-0.924224 -0.444765,-0.207238 -1.445003,-0.226572 -1.942568,-0.03754 -1.073927,0.407986 -1.689411,1.583618 -1.425216,2.722291 0.180017,0.775877 0.751275,1.360473 1.591525,1.628688 0.453018,0.144615 1.499894,0.143 2.049922,-0.0032 z M 17.869327,34.978279 c 0.01193,-0.661031 0.04172,-1.278706 0.06619,-1.372613 0.06362,-0.244161 0.592389,-0.453749 0.889647,-0.352626 0.127261,0.04328 0.238092,0.08861 0.246291,0.100722 0.0082,0.01202 0.03842,0.652997 0.06716,1.424199 l 0.05226,1.402185 0.850727,0 0.850729,0 0,-1.856569 0,-1.856569 -0.223877,-0.216973 c -0.529794,-0.513459 -1.288872,-0.572454 -2.183281,-0.169683 -0.326115,0.146857 -0.613051,0.249017 -0.637634,0.227021 -0.02458,-0.022 -0.0447,-0.122005 -0.0447,-0.222223 0,-0.10022 -0.03728,-0.202847 -0.08286,-0.228049 -0.07551,-0.04176 -1.712846,0.176394 -1.783001,0.237567 -0.01655,0.01436 0.01358,0.344627 0.06691,0.733788 0.05334,0.389163 0.0971,1.287472 0.09724,1.996243 1.79e-4,0.708772 0.02852,1.313969 0.06307,1.344885 0.03455,0.03092 0.427454,0.04594 0.873116,0.03339 l 0.810294,-0.02283 0.02171,-1.201872 z m 15.18451,1.14178 c 0.02331,-0.05509 0.02072,-0.64321 -0.0058,-1.306941 l -0.04811,-1.206786 0.249171,-0.175371 c 0.27821,-0.195805 0.776428,-0.233063 0.928221,-0.06941 0.06045,0.06517 0.107757,0.627993 0.122899,1.462279 l 0.02463,1.356324 0.843243,0.02322 c 0.61424,0.01687 0.863145,-0.0048 0.91652,-0.08012 0.04029,-0.05683 0.073,-0.824465 0.07268,-1.705837 -7.18e-4,-1.926027 -0.06831,-2.145143 -0.753154,-2.441779 -0.653778,-0.283178 -1.341052,-0.193298 -2.146274,0.280687 l -0.261032,0.153659 0.06067,-1.259007 0.06067,-1.259006 -0.829471,0.05089 c -1.202459,0.07379 -1.21702,0.0815 -1.134396,0.601433 0.03738,0.235265 0.07092,1.587562 0.07451,3.005106 0.005,1.982458 0.03237,2.586678 0.118467,2.617763 0.06157,0.02223 0.461184,0.04326 0.888042,0.04675 0.544049,0.0045 0.788768,-0.02361 0.818464,-0.09383 z m 5.683954,-1.096266 c 0.01424,-0.660539 0.06556,-1.200139 0.119651,-1.258464 0.05459,-0.05884 0.347516,-0.112081 0.691457,-0.125647 l 0.596749,-0.02354 0,-0.841312 0,-0.841311 -0.247377,-0.02544 c -0.136055,-0.014 -0.473382,0.06713 -0.74961,0.180281 -0.596875,0.244496 -0.569796,0.241394 -0.571515,0.06551 -0.0032,-0.331284 -0.100497,-0.352426 -0.990611,-0.215357 -0.46409,0.07146 -0.857393,0.141779 -0.874009,0.156278 -0.01665,0.01454 0.0203,0.236524 0.08205,0.493413 0.06953,0.289269 0.1087,1.030513 0.102924,1.947166 -0.006,0.962274 0.02483,1.516903 0.08826,1.585313 0.07059,0.07612 0.322957,0.09889 0.912333,0.08235 l 0.814736,-0.02288 0.02495,-1.156358 z m 9.133682,-0.224713 0.02451,-1.381073 0.262093,-0.121269 c 0.144158,-0.0667 0.339758,-0.121268 0.434677,-0.121268 0.359645,0 0.416283,0.199874 0.463164,1.63452 l 0.04478,1.370162 0.850727,0 0.850729,0 0.04476,-1.346877 c 0.0439,-1.320746 0.04912,-1.349861 0.268651,-1.50056 0.12314,-0.08452 0.32976,-0.154484 0.459175,-0.155471 0.434797,-0.0032 0.481103,0.147737 0.481103,1.569083 0,0.836274 0.03512,1.336977 0.09773,1.393012 0.06025,0.05392 0.403698,0.07852 0.895505,0.06415 l 0.797781,-0.02333 0.02318,-1.722685 c 0.02036,-1.512676 0.004,-1.756177 -0.134331,-1.997426 -0.237271,-0.413876 -0.568011,-0.591099 -1.176642,-0.630489 -0.636559,-0.0412 -1.086029,0.07917 -1.494791,0.400287 l -0.30458,0.239277 -0.223228,-0.237368 c -0.312137,-0.331909 -0.669872,-0.443764 -1.290739,-0.403581 -0.399268,0.02584 -0.632647,0.0958 -0.962873,0.288634 L 47.84698,32.371336 47.8177,32.152439 c -0.01604,-0.120389 -0.06111,-0.248346 -0.1,-0.284339 -0.06201,-0.05737 -0.627649,0.01202 -1.480043,0.181725 l -0.266068,0.05295 0.02848,1.998629 c 0.01564,1.099244 0.04797,2.02694 0.07182,2.061544 0.02383,0.0346 0.432983,0.05263 0.909217,0.04007 l 0.865881,-0.02286 0.02451,-1.381071 z m -16.11739,-7.678338 c 0.982427,-0.178601 2.002126,-0.641277 2.731791,-1.239511 0.333869,-0.27373 0.664353,-0.596867 0.734409,-0.71808 0.118827,-0.205615 0.107917,-0.249263 -0.162769,-0.651123 -0.603335,-0.89571 -1.364299,-1.832908 -1.488247,-1.832913 -0.07082,-4e-6 -0.361617,0.163689 -0.646229,0.363754 -0.284611,0.200068 -0.75054,0.461475 -1.0354,0.580905 -0.460098,0.192901 -0.622913,0.217145 -1.458205,0.217145 -0.728492,0 -1.013796,-0.03273 -1.266671,-0.14535 -0.609273,-0.27132 -1.043505,-0.680852 -1.393214,-1.313962 -0.311165,-0.563331 -0.339176,-0.67211 -0.370972,-1.440597 -0.02858,-0.690989 -0.0016,-0.922065 0.159681,-1.36942 0.242525,-0.672568 0.695001,-1.236763 1.239776,-1.545885 0.573413,-0.325372 1.019235,-0.418247 1.812281,-0.377542 0.837153,0.04296 1.493863,0.296981 2.329382,0.900998 0.559047,0.404147 0.613264,0.425957 0.787491,0.316768 0.175585,-0.110035 0.920434,-1.178649 1.347077,-1.932592 0.303503,-0.536337 0.261449,-0.666918 -0.390522,-1.212613 -0.940683,-0.787345 -2.128631,-1.224935 -3.723946,-1.371744 -2.415561,-0.222294 -4.429575,0.501349 -5.867146,2.108084 -0.58161,0.650052 -1.192941,1.747332 -1.435374,2.576361 -0.245301,0.838827 -0.223138,2.808694 0.04147,3.685744 0.563397,1.867407 1.985033,3.378353 3.833722,4.074557 1.168187,0.439931 2.873775,0.572051 4.221617,0.327014 z m -9.306859,-0.174976 c 0.136376,-0.228706 0.295467,-1.613255 0.264692,-2.303591 l -0.02858,-0.640999 -0.940278,0 c -0.517153,0 -1.8369,0.03164 -2.932773,0.07029 l -1.992495,0.07029 0,-2.442262 c 0,-1.343244 0.04029,-3.177688 0.08953,-4.076538 0.04924,-0.898852 0.09962,-1.939155 0.111937,-2.311784 l 0.02241,-0.677507 -2.000108,-0.0036 c -1.384794,-0.0025 -2.026005,0.02437 -2.08429,0.08721 -0.05258,0.05669 -0.04838,1.154422 0.01119,2.924558 0.05246,1.558593 0.0708,4.239996 0.04077,5.958675 -0.03663,2.095946 -0.02417,3.164445 0.03783,3.245059 0.07742,0.10065 0.533099,0.127315 2.8047,0.164048 5.953977,0.09627 6.50312,0.09096 6.595456,-0.06388 z m 22.084425,-0.210634 c 0.442192,-0.120946 0.990398,-0.310689 1.218233,-0.421641 1.403446,-0.683454 2.628085,-2.151642 3.146076,-3.771754 0.164714,-0.515151 0.199611,-0.826175 0.200373,-1.78562 0.0011,-1.382483 -0.108459,-1.814615 -0.770031,-3.036987 -0.376697,-0.696012 -0.564613,-0.935084 -1.138848,-1.44888 -1.087308,-0.972866 -2.290229,-1.414206 -4.383155,-1.608139 -1.293288,-0.119833 -6.235807,-0.07224 -6.385083,0.0615 -0.08473,0.0759 -0.08435,0.760844 0.0018,3.144808 0.08676,2.401307 0.087,3.657824 0.0012,5.923904 -0.05989,1.581875 -0.08498,2.931854 -0.05577,2.999955 0.07665,0.178709 0.429723,0.194021 4.092621,0.177507 l 3.268587,-0.01471 0.803988,-0.219909 -6e-6,0 z"
         style="opacity:1;fill:#00c0b5;fill-opacity:0;stroke:#008080;stroke-width:0.0847066;stroke-linejoin:miter;stroke-opacity:0" />
      <rect
         rx="0"
         y="46.944096"
         x="34.727272"
         height="5.4545455"
         width="23.454546"
         id="rect5517"
         style="opacity:1;fill:#00c0b5;fill-opacity:1;stroke:none;stroke-width:1;stroke-linecap:butt;stroke-linejoin:round;stroke-miterlimit:4;stroke-dasharray:none;stroke-opacity:0.94117647" />
      <rect
         rx="0"
         y="49.636364"
         x="40.909092"
         height="9.454545"
         width="17.272728"
         id="rect5519"
         style="opacity:1;fill:#00c0b5;fill-opacity:1;stroke:none;stroke-width:1;stroke-linecap:butt;stroke-linejoin:round;stroke-miterlimit:4;stroke-dasharray:none;stroke-opacity:0.94117647" />
      <rect
         y="58.214581"
         x="43.140739"
         height="4.3712053"
         width="13.499311"
         id="rect5521"
         style="opacity:1;fill:#00c0b5;fill-opacity:1;stroke:none;stroke-width:1;stroke-linecap:butt;stroke-linejoin:round;stroke-miterlimit:4;stroke-dasharray:none;stroke-opacity:0.94117647" />
      <g
         transform="matrix(0.87877736,0,0,0.87877736,0.89015839,6.0416478)"
         id="g6405">
        <g
           id="g6380"
           transform="translate(3.3426866,-3.3426866)">
          <path
             transform="matrix(1.0001765,0,0,0.85966537,1.6670988,1.8060546)"
             inkscape:transform-center-y="-5.1117528"
             d="M 24.041632,9.2310181 44.639913,44.90829 3.4433494,44.908288 Z"
             inkscape:randomized="0"
             inkscape:rounded="0"
             inkscape:flatsided="true"
             sodipodi:arg2="-0.52359878"
             sodipodi:arg1="-1.5707963"
             sodipodi:r2="11.892424"
             sodipodi:r1="23.784847"
             sodipodi:cy="33.015865"
             sodipodi:cx="24.041632"
             sodipodi:sides="3"
             id="path6355"
             style="opacity:1;fill:#00c0b5;fill-opacity:1;stroke:#00c0b5;stroke-width:0.1;stroke-linecap:butt;stroke-linejoin:round;stroke-miterlimit:4;stroke-dasharray:none;stroke-opacity:1"
             sodipodi:type="star" />
          <path
             inkscape:transform-center-y="-3.3545569"
             d="m 43.326363,20.298032 11.620532,20.127352 -23.241065,0 z"
             inkscape:randomized="0"
             inkscape:rounded="0"
             inkscape:flatsided="true"
             sodipodi:arg2="-0.52359878"
             sodipodi:arg1="-1.5707963"
             sodipodi:r2="6.7091174"
             sodipodi:r1="13.418235"
             sodipodi:cy="33.716267"
             sodipodi:cx="43.326363"
             sodipodi:sides="3"
             id="path6355-1"
             style="opacity:1;fill:#00c0b5;fill-opacity:1;stroke:#00c0b5;stroke-width:0.05641505;stroke-linecap:butt;stroke-linejoin:round;stroke-miterlimit:4;stroke-dasharray:none;stroke-opacity:1"
             sodipodi:type="star" />
        </g>
        <path
           sodipodi:type="star"
           style="opacity:1;fill:#ffffff;fill-opacity:1;stroke:#ffffff;stroke-width:0.1;stroke-linecap:butt;stroke-linejoin:round;stroke-miterlimit:4;stroke-dasharray:none;stroke-opacity:1"
           id="path6384"
           sodipodi:sides="3"
           sodipodi:cx="33.636364"
           sodipodi:cy="22.909092"
           sodipodi:r1="11.56941"
           sodipodi:r2="5.7847047"
           sodipodi:arg1="0.52694323"
           sodipodi:arg2="1.5741408"
           inkscape:flatsided="true"
           inkscape:rounded="0"
           inkscape:randomized="0"
           d="M 43.636365,28.727274 23.59767,28.660255 33.675057,11.339746 Z"
           inkscape:transform-center-x="0.019351124"
           inkscape:transform-center-y="-2.5457927"
           transform="matrix(1.0002942,0,0,0.88531405,-4.6382242,-2.6879484)" />
        <path
           sodipodi:type="star"
           style="opacity:1;fill:#ffffff;fill-opacity:1;stroke:#ffffff;stroke-width:0.1;stroke-linecap:butt;stroke-linejoin:round;stroke-miterlimit:4;stroke-dasharray:none;stroke-opacity:1"
           id="path6384-4"
           sodipodi:sides="3"
           sodipodi:cx="33.636364"
           sodipodi:cy="22.909092"
           sodipodi:r1="11.56941"
           sodipodi:r2="5.7847047"
           sodipodi:arg1="0.52694323"
           sodipodi:arg2="1.5741408"
           inkscape:flatsided="true"
           inkscape:rounded="0"
           inkscape:randomized="0"
           d="M 43.636365,28.727274 23.59767,28.660255 33.675057,11.339746 Z"
           inkscape:transform-center-x="0.0046790686"
           inkscape:transform-center-y="-0.73735901"
           transform="matrix(0.24188068,0,0,0.25642085,38.513086,14.922933)" />
      </g>
      <ellipse
         ry="7.3263578"
         rx="7.6477699"
         cy="16.631092"
         cx="48.975971"
         id="path6412"
         style="opacity:1;fill:none;fill-opacity:1;stroke:#00c0b5;stroke-width:1.00399995;stroke-linecap:butt;stroke-linejoin:round;stroke-miterlimit:4;stroke-dasharray:none;stroke-opacity:1" />
    </g>
  </g>
</svg>
