<?xml version="1.0" encoding="UTF-8" standalone="no"?>
<svg
   xmlns:dc="http://purl.org/dc/elements/1.1/"
   xmlns:cc="http://creativecommons.org/ns#"
   xmlns:rdf="http://www.w3.org/1999/02/22-rdf-syntax-ns#"
   xmlns:svg="http://www.w3.org/2000/svg"
   xmlns="http://www.w3.org/2000/svg"
   xmlns:sodipodi="http://sodipodi.sourceforge.net/DTD/sodipodi-0.dtd"
   xmlns:inkscape="http://www.inkscape.org/namespaces/inkscape"
   version="1.0"
   x="0px"
   y="0px"
   viewBox="0 0 100 94.77625"
   enable-background="new 0 0 100 75.821"
   xml:space="preserve"
   id="svg2"
   inkscape:version="0.91 r13725"
   sodipodi:docname="touch_icon_64.svg"><metadata
     id="metadata14"><rdf:RDF><cc:Work
         rdf:about=""><dc:format>image/svg+xml</dc:format><dc:type
           rdf:resource="http://purl.org/dc/dcmitype/StillImage" /><dc:title></dc:title></cc:Work></rdf:RDF></metadata><defs
     id="defs12" /><sodipodi:namedview
     pagecolor="#ffffff"
     bordercolor="#666666"
     borderopacity="1"
     objecttolerance="10"
     gridtolerance="10"
     guidetolerance="10"
     inkscape:pageopacity="0"
     inkscape:pageshadow="2"
     inkscape:window-width="1920"
     inkscape:window-height="1018"
     id="namedview10"
     showgrid="false"
     inkscape:zoom="14.085993"
     inkscape:cx="40.833059"
     inkscape:cy="46.800002"
     inkscape:window-x="-8"
     inkscape:window-y="-8"
     inkscape:window-maximized="1"
     inkscape:current-layer="svg2" /><path
     d="m 45.637955,64.781817 c -0.554,-0.554 -0.865,-1.305 -0.865,-2.089 0,-1.631 1.323,-2.954 2.954,-2.954 0.784,0 1.535,0.312 2.089,0.866 l 0,0 9.647,9.646 1.183,0 0,-35.851 c 0,-1.631 1.323,-2.956 2.954,-2.956 1.631,0 2.955,1.325 2.955,2.956 l 0,0 0,25.721 1.181,0 0,-12.4 c 0,-1.631 1.324,-2.954 2.955,-2.954 1.631,0 2.954,1.323 2.954,2.954 l 0,0 0,14.3 1.183,0 0,-14.082 c 0.511,-0.384 1.133,-0.592 1.771,-0.592 1.631,0 2.956,1.323 2.956,2.954 l 0,0 0,13.619 1.181,0 0,-10.447 c 0.511,-0.384 1.134,-0.59 1.773,-0.59 1.63,0 2.955,1.323 2.955,2.953 l 0,0 -0.019,18.821 c -0.015,6.842 -5.566,12.381 -12.41,12.381 -3.291,0 -6.446,-1.308 -8.773,-3.634 l 0,0 -18.624,-18.622 z m 49.569,-53.565 -89.5449999,0 c -2.89,0 -5.23600003,2.346 -5.23600003,5.236 l 0,0 0,57.598 c 0,2.892 2.34600003,5.237 5.23600003,5.237 l 0,0 50.3039999,0 -7.855,-7.854 -39.8309999,0 0,-52.363 84.3089999,0 0,52.362 -4.188,0 -0.003,3.198 c 0,1.579 -0.244,3.151 -0.724,4.656 l 0,0 7.532,0 c 2.891,0 5.236005,-2.346 5.236005,-5.237 l 0,0 0,-57.597 c 0.002,-2.89 -2.344005,-5.236 -5.235005,-5.236 l 0,0 z m -25.697,23.183 0,6.605 c 1.879,-1.681 2.954,-4.084 2.954,-6.605 0,-4.893 -3.971,-8.864 -8.863,-8.864 -4.892,0 -8.864,3.971 -8.864,8.864 0,2.521 1.076,4.924 2.955,6.605 l 0,0 0,-6.605 c 0,-3.262 2.647,-5.91 5.909,-5.91 3.262,0 5.909,2.648 5.909,5.91 l 0,0 z"
     id="path4"
     inkscape:connector-curvature="0"
     style="fill:#00c0b5;fill-opacity:1" /></svg>